<svg id="Layer_1" data-name="Layer 1" xmlns="http://www.w3.org/2000/svg" viewBox="0 0 489.98 217.38"><defs><style>.cls-1,.cls-2{fill:#fff;}.cls-2{fill-rule:evenodd;}</style></defs><title>Логотип Инна Мората</title><path class="cls-1" d="M27.52,138.74c0,.1-26.78,72.14-27.47,72.53S6.9,218,7.58,217.33c.49-.49,26.39-70.67,27-71.26.29-.78-6.45-8.41-7-7.33ZM4.46,211.37a1.06,1.06,0,0,1,.1-.49l.29-1.08c.39-.88.78-2.05,1.17-3.23s1-2.35,1.27-3.23a9,9,0,0,1,.49-1L8,202l-.2.39-.29,1.08c-.29.88-.68,2.05-1.17,3.23A13.87,13.87,0,0,1,5,209.9L4.65,211l-.2.39Zm4-6.26c-.68,1.47-1.08,2.64-1.47,3.71a13.79,13.79,0,0,0-1.17,2.64c-.29.39-.39.59-.39.68a.18.18,0,0,0,0,.29v-.29a3,3,0,0,1,.2-.78c.29-.68.49-1.56,1-2.64.29-1.17.78-2.44,1.17-3.91l1.56-4.3a38.93,38.93,0,0,0,1.66-4.3,24,24,0,0,0,1.47-3.71l1.17-2.64.39-.78.1-.2a.36.36,0,0,1-.1.29l-.29.68c-.1.68-.49,1.66-.78,2.74a30.76,30.76,0,0,1-1.37,3.81,39.53,39.53,0,0,1-1.56,4.4,38,38,0,0,1-1.56,4.3Zm8-17.69c-.29.49-.2,1.17-.49,2L14.13,195a54.65,54.65,0,0,1-2.25,5.57,11.77,11.77,0,0,1-.78,1.86c-.1.29-.1.39-.2.49s-.1.1-.1.2c.1-.1.1-.1.1-.2a1.24,1.24,0,0,1,.1-.59,13.89,13.89,0,0,1,.49-2c.49-1.56,1.08-3.62,1.86-5.67.88-2.25,1.56-4.11,2.25-5.57a11.08,11.08,0,0,1,.68-1.76,1,1,0,0,1,.29-.49c.1-.1.1-.1.1-.2-.1.1-.1.1-.1.2a2,2,0,0,0-.1.49Zm57.28-3.32c-6.45,12.12-15.54,23.56-21.8,23.56,0-6,14.37-29.33,14.37-35.19a10.68,10.68,0,0,0-5.47-9.09c-.1-.1-.2-.1-.39-.1s-.1-.1-.2-.1-.2.1-.29.1c-2.05,1.27-12.32,13-20.33,22.58,3.62-8.5,7.14-17.2,7.14-18.87,0-3.23-4-6-6.06-6a.77.77,0,0,0-.78.49.59.59,0,0,0-.1.39c0,3.71-20.53,44.87-20.53,48.19s4.2,7.14,5.77,7.14c1.27,0,10.46-18.57,31-39.1-4.69,11-12.9,23.75-12.9,30,0,3,5.77,9.19,9.29,9.19,10.26,0,22.19-17.5,27.17-27.37.78-1.86-4.79-7.62-5.86-5.87Zm-38.42,5.67c-.68,1.27-1.08,2.35-1.56,3.42l-1.17,2.35a4,4,0,0,0-.49.88,3.46,3.46,0,0,1,.39-.88l1.08-2.44,3.23-7.43L41.5,174.9a.36.36,0,0,0-.1.29l-.2.68-1,2.44-1.37,3.52c-.68,1.27-1.08,2.54-1.76,4-.68,1.27-1.08,2.64-1.76,3.91ZM39,183.9a9.55,9.55,0,0,0,.78-2.25L41,178.52c.39-1.17.88-2.35,1.37-3.62l1.47-3.52c.39-1.17.88-2.15,1.17-3.23a3.19,3.19,0,0,1,.39-1.27l.2-1v-.68a.3.3,0,0,1-.1-.2c0,.1,0,.1.1.2a.36.36,0,0,1,.1.29v.39a12.6,12.6,0,0,1-.29,2.44l-1,3.23c-.39,1.17-.78,2.44-1.27,3.62s-1.08,2.44-1.56,3.62-1,2.15-1.47,3L39.06,184c-.29.29-.2.49-.29.59s-.1.1-.1.2l.29-.88ZM56.56,181c.39-.68.59-1.37.88-1.76a4.28,4.28,0,0,1,.39-.68l-.29.68a17.77,17.77,0,0,0-.78,1.86l-1.17,2.54-1.37,2.83c-1.08,2-1.86,3.91-2.64,5.38a17.38,17.38,0,0,1-.78,1.76l-.29.68a2.48,2.48,0,0,1,.2-.68,15.62,15.62,0,0,1,.68-1.86c.39-.78.68-1.66,1.17-2.54.39-1.08.88-1.86,1.37-2.93q1.61-2.93,2.64-5.28ZM46.49,200.81c-.49,1.08-1,2.05-1.37,3.13a14.9,14.9,0,0,0-.68,2.35,1.45,1.45,0,0,0-.1.68.3.3,0,0,0-.1.2v-.88a4.16,4.16,0,0,1,.2-1.08,3.84,3.84,0,0,1,.29-1.37,7.49,7.49,0,0,1,.49-1.66,14.42,14.42,0,0,0,.68-1.66l1.56-3.62c.68-1.27,1.17-2.44,1.86-3.62s1.17-2.15,1.66-3l1.17-2.15a1.5,1.5,0,0,1,.39-.59c.1-.1.1-.1.1-.2,0,.1,0,.1-.1.2l-.29.68a15.35,15.35,0,0,0-.88,2.25,19,19,0,0,0-1.47,3.13c-.68,1.17-1.08,2.35-1.76,3.62s-1,2.44-1.66,3.62Zm10.36,14.66a2.89,2.89,0,0,1-1.47.59,3.83,3.83,0,0,1-1.76.39h-1l-.88-.2a2.9,2.9,0,0,1-1.47-.59l-.59-.29-.39-.29-.29-.29c0,.1,0,.1.1.1s0,.1.29.1a.74.74,0,0,0,.39.2l.59.29a4.32,4.32,0,0,0,1.47.49c.29,0,.59.1.88.1h.88a9.16,9.16,0,0,0,3.13-.78l1.08-.39.39-.2-.39.29c-.29.29-.59.2-1,.49Zm60-31.38c-6.45,12.12-15.54,23.56-21.8,23.56,0-6,14.37-29.33,14.37-35.19a10.68,10.68,0,0,0-5.47-9.09c-.1-.1-.2-.1-.39-.1s-.1-.1-.2-.1-.2.1-.29.1c-2.05,1.27-12.32,13-20.33,22.58,3.62-8.5,7.14-17.2,7.14-18.87,0-3.23-4-6-6.06-6a.77.77,0,0,0-.78.49.59.59,0,0,0-.1.39c0,3.71-20.53,44.87-20.53,48.19s4.2,7.14,5.77,7.14c1.27,0,10.46-18.57,31-39.1-4.69,11-12.9,23.75-12.9,30,0,3,5.77,9.19,9.29,9.19,10.26,0,22.19-17.5,27.17-27.37.78-1.86-4.79-7.62-5.86-5.87Zm-38.42,5.67c-.68,1.27-1.08,2.35-1.56,3.42l-1.17,2.35a4,4,0,0,0-.49.88,3.46,3.46,0,0,1,.39-.88l1.08-2.44,3.23-7.43,4.69-10.75a.36.36,0,0,0-.1.29l-.2.68-1,2.44L82,181.84c-.68,1.27-1.08,2.54-1.76,4-.68,1.27-1.08,2.64-1.76,3.91Zm3.62-5.86a9.55,9.55,0,0,0,.78-2.25l1.27-3.13c.39-1.17.88-2.35,1.37-3.62L87,171.39c.39-1.17.88-2.15,1.17-3.23a3.19,3.19,0,0,1,.39-1.27l.2-1v-.68a.3.3,0,0,1-.1-.2c0,.1,0,.1.1.2a.36.36,0,0,1,.1.29v.39a12.6,12.6,0,0,1-.29,2.44l-1,3.23c-.39,1.17-.78,2.44-1.27,3.62s-1.08,2.44-1.56,3.62-1,2.15-1.47,3L82.17,184c-.29.29-.2.49-.29.59s-.1.1-.1.2l.29-.88ZM99.66,181c.39-.68.59-1.37.88-1.76a4.28,4.28,0,0,1,.39-.68l-.29.68a17.74,17.74,0,0,0-.78,1.86l-1.17,2.54-1.37,2.83c-1.08,2-1.86,3.91-2.64,5.38a17.38,17.38,0,0,1-.78,1.76l-.29.68a2.49,2.49,0,0,1,.2-.68,15.68,15.68,0,0,1,.68-1.86c.39-.78.68-1.66,1.17-2.54.39-1.08.88-1.86,1.37-2.93q1.61-2.93,2.64-5.28ZM89.6,200.81c-.49,1.08-1,2.05-1.37,3.13a14.89,14.89,0,0,0-.68,2.35,1.45,1.45,0,0,0-.1.68.3.3,0,0,0-.1.2v-.88a4.16,4.16,0,0,1,.2-1.08,3.84,3.84,0,0,1,.29-1.37,7.48,7.48,0,0,1,.49-1.66,14.45,14.45,0,0,0,.68-1.66l1.56-3.62c.68-1.27,1.17-2.44,1.86-3.62s1.17-2.15,1.66-3l1.17-2.15a1.5,1.5,0,0,1,.39-.59c.1-.1.1-.1.1-.2,0,.1,0,.1-.1.2l-.29.68a15.35,15.35,0,0,0-.88,2.25A19,19,0,0,0,93,193.58c-.68,1.17-1.08,2.35-1.76,3.62s-1,2.44-1.66,3.62ZM100,215.47a2.89,2.89,0,0,1-1.47.59,3.83,3.83,0,0,1-1.76.39h-1l-.88-.2a2.9,2.9,0,0,1-1.47-.59l-.59-.29-.39-.29-.29-.29c0,.1,0,.1.1.1s0,.1.29.1a.74.74,0,0,0,.39.2l.59.29A4.32,4.32,0,0,0,95,216c.29,0,.59.1.88.1h.88a9.16,9.16,0,0,0,3.13-.78l1.08-.39.39-.2-.39.29c-.29.29-.59.2-1,.49Zm66.28-31.28c-2.05,2.05-12.32,23.66-19.94,23.66-2.15,0,6.26-15.84,6.26-17s-5.47-7.72-6.55-7.72c-.29,0-.68.39-1.17,1.27-4.11,5.28-18.47,25.42-26.78,25.42-1.47,0-2.25-.88-2.25-2.64,0-13,22.48-36.07,31.77-36.07,4.5,0,3.32,5.38,6,5.38,2.35,0,.1-13.69-8.31-13.69-10.65,0-36,23.95-36,39.69,0,5.08,7.53,14.86,13.69,14.86,3.81,0,10-4.69,15.35-10.07V208c0,2.74,5.67,9.29,9.09,9.29,9.29,0,23.26-23.36,23.26-27.08,0-2.15-3.62-6.84-4.4-6.06Zm-27.08-16.42a16.93,16.93,0,0,0-1.76,1.08l-2,1.37-3.62,2.74-1.17.88c-.2.1-.29.29-.39.39l.39-.39,1.08-1.08a11.93,11.93,0,0,1,1.56-1.37l1.86-1.47a23.44,23.44,0,0,1,2.05-1.27c.68-.49,1.27-.78,1.76-1.08a4.37,4.37,0,0,0,1.37-.68c.1,0,.29-.1.39-.1s.1,0,.1-.1l-.49.29a6.1,6.1,0,0,1-1.17.78Zm-24.54,23.07a18.13,18.13,0,0,0-1.08,1.86l-.88,1.76a33.43,33.43,0,0,0-1.17,3.23,7.34,7.34,0,0,0-.39,1.47,2.6,2.6,0,0,0-.29,1.17l-.2,1V202a.73.73,0,0,0-.1.49V202a11.34,11.34,0,0,1,.1-1.66l.2-1.27a4.19,4.19,0,0,1,.39-1.37,26.07,26.07,0,0,1,1.08-3.32l.88-1.86,1-2a42.76,42.76,0,0,1,2.44-3.91c.88-1.27,1.86-2.64,2.93-3.91s2.25-2.64,3.32-3.91a67.73,67.73,0,0,1,7.33-6.84,62.62,62.62,0,0,1,7.23-5.08,15.58,15.58,0,0,1,3.13-1.56c.39-.29.88-.29,1.27-.59.49-.1.88-.29,1.27-.39l1-.2c.29,0,.39-.1.68-.1h.39c-.1,0-.1.1-.39.1a1.45,1.45,0,0,0-.68.1l-1,.29a8.14,8.14,0,0,0-1.17.39c-.39.29-.88.29-1.27.59a21.33,21.33,0,0,0-3,1.76c-1.08.68-2.25,1.47-3.42,2.35a29.78,29.78,0,0,0-3.52,2.83,79.07,79.07,0,0,0-7.23,6.84c-1.17,1.27-2.25,2.54-3.32,3.81s-2,2.64-3,3.91a41.55,41.55,0,0,0-2.44,3.81Zm12.12,15.93A8,8,0,0,1,128,205.6a21.56,21.56,0,0,0,1.66-1.56l1.86-1.86,1.86-2c.68-.68,1.08-1.27,1.56-1.76l1.08-1.17.49-.49-.39.49c-.29.29-.59.88-1,1.37s-.88,1.08-1.56,1.76a15.86,15.86,0,0,1-1.76,2,17.1,17.1,0,0,1-2,1.86,20.46,20.46,0,0,1-1.76,1.56,10.18,10.18,0,0,0-1.37,1l-.39.29-.1.1.1-.1.39-.29Zm7.82,2.15a22.79,22.79,0,0,1-2.25,1.86,33.34,33.34,0,0,1-2.74,2.05l-1.47,1-1.47.78a4.6,4.6,0,0,1-1.47.59,3.18,3.18,0,0,1-1.27.39,1.45,1.45,0,0,1-.68.1h-.59a2.65,2.65,0,0,1-.88,0l-.59-.2h0a3.46,3.46,0,0,0,.59.1h.88c.29,0,.49,0,.59-.1.29,0,.49,0,.59-.1a3.19,3.19,0,0,0,1.27-.39c.49-.29,1-.39,1.47-.68s1-.49,1.37-.78l1.47-1a33.22,33.22,0,0,0,2.74-2,24.58,24.58,0,0,0,2.35-1.86l1.66-1.27.59-.49-.59.59a12,12,0,0,1-1.56,1.37ZM285.1,140.11a2.22,2.22,0,0,0-1.47.8l-.78.78a2,2,0,0,0-.59-1c-.39-.49-.88-1.09-1.37-1.09s-10.46,8.81-19.75,17.63c-5.57,5.18-11.83,10.95-18.77,17.51L249,160.27c3.32-7.25,6.65-14.68,6.65-15.17,0-1.08-2.54-6.86-5.08-6.86-5.08,0-42.42,38.27-62.46,72.91,0,1.76,4.79,6.17,5.77,6.17s21.8-36.71,46.53-59.5c0,3-18.77,42.57-23.56,51.37,0,.68,4.3,5.47,5.86,5.47s11.34-24.26,49.46-55.38C251.08,198.85,251,199,247.46,212c0,.78,6.45,6.94,6.94,4.79,5.28-17.3,33.33-68.72,33.33-69.79s-1.66-6.94-2.64-6.94Zm-84.46,53.63-1.27,2c-.39.72-.88,1.21-1.27,1.89a10.85,10.85,0,0,1-1.17,1.56,6.1,6.1,0,0,1-.78,1.17l-.29.39a1.65,1.65,0,0,1,.2-.49c.29-.29.39-.68.78-1.17l1.08-1.66,1.17-1.86a16.34,16.34,0,0,0,1.27-2,9.06,9.06,0,0,0,1.17-1.56l.88-1.08.29-.49-.29.49a6.19,6.19,0,0,0-.68,1.17l-1.08,1.63Zm21.8-26.85-5,6c-1.86,2-3.42,4-5,6l-4.3,5.28-3,3.71a12.72,12.72,0,0,0-1.17,1.37c0-.13.1-.23.2-.42.29-.29.39-.59.78-1.08.68-1.08,1.66-2.36,2.83-3.93l4.2-5.38,4.89-6.06c1.86-2.07,3.42-4,5.08-6l2.44-2.64,2.15-2.35c1.37-1.47,2.54-2.64,3.42-3.42l.88-1,.39-.29a12.63,12.63,0,0,1-1.17,1.37l-3.23,3.62-4.4,5.25Zm17.2.72c-.29.68-.49,1.47-1,2.54a39.1,39.1,0,0,1-1.47,3.73,37.5,37.5,0,0,1-1.66,4.2l-1.86,4.11c-.68,1.27-1.08,2.44-1.76,3.54-.49,1.08-1,1.76-1.27,2.44l-.49,1a.36.36,0,0,1,.1-.29l.29-.68,1.08-2.54a39.2,39.2,0,0,1,1.47-3.73q.73-1.91,1.76-4.11c.68-1.47,1.08-2.74,1.76-4.2.68-1.27,1.17-2.44,1.66-3.54l1.27-2.54.49-1a.36.36,0,0,1-.1.29,2.15,2.15,0,0,0-.29.78Zm21.6-7.92c-.88.78-1.76,1.56-2.64,2.25s-1.66,1.37-2.35,2.05-1.27,1-1.66,1.37l-.49.39-.1.1.1-.1.39-.49L256,163.7l2.25-2.15,2.54-2.44,2.54-2.35a22.63,22.63,0,0,0,2.35-2l1.66-1.37.49-.39c.1-.1.1-.1.2-.1l-.59.59a17.55,17.55,0,0,1-1.47,1.56l-2.15,2.17-2.54,2.44Zm7.43-5.59a22.22,22.22,0,0,0-2.64,2.26c-.39.39-.68.49-1,.78-.1.1-.2.2-.29.2l.29-.29a5.92,5.92,0,0,0,.78-.78l2.54-2.46q1.61-1.32,2.64-2.35l.88-.68.39-.29-.29.29-.78.88-2.54,2.44Zm-10.56,38.76c-.39.78-.68,1.76-1.08,2.64L255.87,198l-1.08,2.25a7.47,7.47,0,0,1-.78,1.58l-.29.59.29-.59a10.18,10.18,0,0,0,.59-1.68l1-2.25c.29-.88.68-1.76,1.08-2.64l1.17-2.54,1.08-2.25a8.92,8.92,0,0,1,.78-1.66l.29-.59-.29.68a8.88,8.88,0,0,0-.59,1.56l-1,2.35Zm3.42-10.48a37.16,37.16,0,0,1-1.47,3.44l-4.59,10.36L253,201.67c-.68,1.86-1.37,3.42-2.05,4.89l-.78,2-.59,1.47a3.29,3.29,0,0,0-.39,1,.59.59,0,0,0-.1.39.59.59,0,0,1,.1-.39,2.59,2.59,0,0,1,.29-1,6.93,6.93,0,0,1,.49-1.56l.59-2.05c.68-1.47,1.17-3,1.86-4.89l1.17-2.75c.39-1.08.78-2,1.17-2.83l2.54-5.47,2.35-4.79c.68-1.48,1.37-2.46,1.76-3.34a2.71,2.71,0,0,0,.49-.88l.2-.29-.2.39a2.22,2.22,0,0,1-.39.88Zm61.19-6.4c-3.71,6.35-9.38,19.06-18.18,20.92,3.13-6,5.08-12,5.08-16.81,0-11.24-7.33-18.57-10.85-18.57-6.84,0-18.67,8.6-18.67,16.13v1.86c-5.28,6.35-11.34,16.81-11.34,23.75,0,8.21,10.17,14.08,13,14.08,6.06,0,12.51-5.47,18-12.81a11.86,11.86,0,0,0,1.86.1c15.44,0,23.75-15.74,27.08-24.24.49-1.27-4.69-6.74-6-4.4Zm-35-8.41a5.8,5.8,0,0,1,1.08-1,9.87,9.87,0,0,1,1.56-1.27,23.29,23.29,0,0,1,2.05-1.27l2.25-1,1-.29c.49-.1.88-.2,1-.2a2.17,2.17,0,0,1,.88-.1h1.17c0,.1,0,.1-.1.1h-.39l-.68.2c-.1,0-.39.1-.78.2a19.17,19.17,0,0,1-1.86.68l-1,.49-1.08.59c-.39.29-.68.2-1.08.49s-.68.29-1,.59a17,17,0,0,1-1.76,1.08c-.49.39-.88.49-1.17.78l-.49.29.1-.1c.1-.1,0-.2.29-.29Zm-.88,1.86a25.43,25.43,0,0,1,2.93-2.25,23.18,23.18,0,0,1,3.32-1.86,7.83,7.83,0,0,1,1.08-.49c.2-.1.39-.1.49-.2v.1l-.39.2-1.08.59a11.15,11.15,0,0,1-1.56.88L290,167.48a6.32,6.32,0,0,0-1.56,1.08,12.55,12.55,0,0,0-1.47,1l-1,.78-.29.29h-.1l.29-.29,1-.88Zm-.2,15.84c1.08-1.08,1.86-1.66,2.54-2.35a2.05,2.05,0,0,1,.78-.59l.29-.2-1,1-1,1L287,185.56a12.64,12.64,0,0,0-1.47,1.66l.29-1.08.88-.88Zm-11.93,19.16a11.21,11.21,0,0,0-.2,1.37c0,.29-.1.29-.1.39v-.39a8,8,0,0,1,.1-1.37c0-.29.1-.59.1-.88a4.3,4.3,0,0,1,.2-1c.29-.68.29-1.47.59-2.15l.88-2,.88-1.76a10.27,10.27,0,0,1,.68-1.08l.29-.49-.29.49c-.29.29-.2.68-.49,1.17l-.78,1.76a5.92,5.92,0,0,0-.78,2.05c-.29.68-.39,1.37-.68,2.05a2921.05,2921.05,0,0,1-.39,1.76Zm.78.2a6.62,6.62,0,0,0-.39,1.47,2.46,2.46,0,0,1-.1,1v0a3.26,3.26,0,0,1,0-1c0-.29.1-.78.2-1.47,0-.29.1-.68.1-1l.29-1c.29-.68.39-1.37.68-2.15.29-.39.2-.78.49-1.17a4.18,4.18,0,0,1,.49-1.27l1.27-2.44,1.47-2.35c.49-.88,1.08-1.56,1.56-2.35l.29-.29.29.88c-.49.68-1.08,1.37-1.56,2.15L279.13,196l-1.27,2.35a5,5,0,0,0-.49,1.17l-.59,1.17a17.62,17.62,0,0,0-.78,2.05,6.53,6.53,0,0,0-.49,1.86Zm.68,4.4c0-6.26,2.83-11.93,6.26-16.52a18,18,0,0,0,7.53,9.19c-4.2,4.4-9,7.33-13.78,7.33Zm13.39-5.86a17.85,17.85,0,0,1-1.66,1.47l-1.37,1.08-1.17.88c.1,0,.2-.1.29-.2l.88-.78c.29-.29.78-.59,1.27-1.08s.88-1,1.56-1.47l1.08-1.08c.1,0,.1.1.2.1a11.15,11.15,0,0,1-1.08,1.08Zm-4.4-14.08a53.2,53.2,0,0,1,6.55-6.55c.68-.68-.1-2.83-1.56-4.79,3.62-4.69,8.31-8.41,12.12-8.41,1.17,0,1.76.78,1.76,2.25,0,6.84-4.3,17.69-10.65,26.1-6.26-.88-8.5-4.4-8.21-8.6Zm13.69,2.05a21.38,21.38,0,0,1-1.66,2.83c-.68.88-1.17,1.76-1.86,2.64l-.88,1.17h-.39l1-1.37c.68-.88,1.17-1.76,1.86-2.64a21.42,21.42,0,0,1,1.66-2.83c.29-.39.39-.88.68-1.37l.68-1.37c.49-.88.88-1.76,1.27-2.64l1-2.44a31.37,31.37,0,0,0,1.37-3.71,10.13,10.13,0,0,1,.39-1,.59.59,0,0,0,.1-.39.59.59,0,0,1-.1.39,2.88,2.88,0,0,0-.29,1l-1.17,3.81c-.29.78-.68,1.56-1,2.44s-.78,1.76-1.27,2.64c-.29.49-.39,1-.68,1.47l-.68,1.37Zm4.69-8.5c-.29.88-.68,1.76-1,2.44a7.64,7.64,0,0,1-.78,1.76l-.29.59c.1-.1.1-.1.1-.2a1.06,1.06,0,0,1,.1-.49,8.25,8.25,0,0,0,.68-1.76l.88-2.44.78-3,.68-2.93a15.68,15.68,0,0,0,.39-2.64c.1-.78.2-1.47.2-1.86a3.45,3.45,0,0,1,.1-.59v2.44a16.64,16.64,0,0,1-.39,2.74,19.42,19.42,0,0,1-.59,2.93l-.88,3Z"/><path class="cls-1" d="M354.89,184.78c-2,3.52-14.17,24.63-21,24.63-3.32,0,9.78-24.44,9.78-28.35s-6.26-7-10.75-8.9c6.94-13.69,12.12-26.59,12.12-30.69,0-5.38-7.53-10.95-10.65-10.95-4.2,0-19.06,17.5-19.06,29.42,0,6.65,4.2,9.87,8.6,12.22-2,3.91-4,8.6-5.86,12.51-1.27,2.35,3.62,9.58,5.38,6.06l7.82-15.44c1.86.68,4.4,2.05,4.4,2.54,0,4.69-10.07,18.48-10.07,28.35,0,7.43,7.43,11.14,9.09,11.14,9.38,0,24.83-23.95,26.69-28.05,1.27-2.93-4.89-7.14-6.45-4.5Zm-36.46-17.89a6.09,6.09,0,0,1-.78-1.17l-.78-1.86a12287695.07,12287695.07,0,0,0-.39-2.35,4,4,0,0,1,.1-1.17,3,3,0,0,1,.1-1.08,5,5,0,0,1,.2-1.08l.2-.88.49-1.37c0-.1.1-.29.1-.39s0-.1.1-.1v.1c0,.1-.1.29-.1.39a4.21,4.21,0,0,1-.39,1.37l-.29,2a4,4,0,0,1-.1,1.17v1.08c0,.39.1.78.1,1.17l.2,1.08a6.74,6.74,0,0,0,.68,1.86,6.19,6.19,0,0,0,.68,1.17,1.07,1.07,0,0,0,.2.39c0,.1,0,.1.1.1l-.39-.39ZM320.58,148l-2.05,4-.78,2-.68,1.76a12.29,12.29,0,0,0-.49,1.47l-.29,1.17a2.16,2.16,0,0,0-.1.78v.29c-.1,0-.1,0-.1-.1v-.2c.1-.29,0-.49.1-.78a4.8,4.8,0,0,1,.1-1.27,7.16,7.16,0,0,1,.39-1.56,8.12,8.12,0,0,1,.49-1.76l.78-2.05.88-2.05a20.71,20.71,0,0,0,1.08-2.05l1.17-2.05a20.94,20.94,0,0,1,1.27-1.86l1.17-1.76c.39-.49.78-1.08,1.17-1.47.68-1.08,1.37-1.56,1.76-2.25l.49-.59.2-.2-.59.88c-.39.68-.88,1.27-1.56,2.35l-1,1.56L322.83,144l-1.08,2L320.58,148Zm1.86,15.05c0-9.38,12.81-25.32,15.15-25.32,1.47,0-4.2,14.76-12,30.89-2.05-1.47-3.13-2.93-3.13-5.57Zm7.72-.78c-.68,1.47-1.27,2.54-1.76,3.42-.49,1.08-1,1.66-1.27,2.35l-.59.88h-.1l1.56-3.42c.88-2.05,2.15-4.79,3.32-7.62s2.44-5.38,3.23-7.62c.39-1.08.78-1.86,1.08-2.54a4.07,4.07,0,0,0,.39-1v.1c-.1,0-.1.1-.1.2,0,.29-.1.49-.1.78a22.57,22.57,0,0,0-.78,2.64l-.59,1.76-.78,1.86a36.17,36.17,0,0,1-1.66,4.11l-1.86,4.11Zm-2.54,40c-.1.1-.1.39-.1.88l-.29,2.54a21.23,21.23,0,0,0,.1,2.64c0,.39.1.59.1.88a.36.36,0,0,0,.1.29.36.36,0,0,0-.1-.29l-.29-.88a9.83,9.83,0,0,1-.29-2.64c.1-1.08.29-1.86.39-2.64a2.16,2.16,0,0,1,.29-.78.36.36,0,0,0,.1-.29v.29Zm2.93-8a8.77,8.77,0,0,0-.59,2.15c-.29.88-.49,1.86-.78,3a4.16,4.16,0,0,0-.39,1.66,6.15,6.15,0,0,0-.29,1.86,10.75,10.75,0,0,0-.2,1.76,10.64,10.64,0,0,0-.1,1.76,8.44,8.44,0,0,0,.1,1.66c0,.29.1.39.1.68l.2.78a3.85,3.85,0,0,0,.2.59c.1.29.1.39.2.49a2,2,0,0,0,.49.88l.29.49a.3.3,0,0,1,.1.2h0c-.1-.1-.1-.1-.1-.2l-.39-.39c-.1-.29-.39-.49-.49-.88s-.2-.2-.29-.49a3020.06,3020.06,0,0,1-.39-1.37l-.2-.78-.2-1.66c.1-.68,0-1.08.1-1.76a12,12,0,0,1,.2-1.86l.29-1.76c.1-.68.29-1.27.39-1.76l.88-3,.78-2.15c.1-.29.1-.49.2-.59s0-.1.1-.2c-.1.1-.1.1-.1.2,0,.29-.1.39-.1.68Zm74-10.07c-2.05,2.05-12.32,23.66-19.94,23.66-2.15,0,6.26-15.84,6.26-17s-5.47-7.72-6.55-7.72c-.29,0-.68.39-1.17,1.27-4.11,5.28-18.47,25.42-26.78,25.42-1.47,0-2.25-.88-2.25-2.64,0-13,22.48-36.07,31.77-36.07,4.5,0,3.32,5.38,6,5.38,2.35,0,.1-13.69-8.31-13.69-10.65,0-36,23.95-36,39.69,0,5.08,7.53,14.86,13.69,14.86,3.81,0,10-4.69,15.35-10.07V208c0,2.74,5.67,9.29,9.09,9.29,9.29,0,23.26-23.36,23.26-27.08,0-2.15-3.62-6.84-4.4-6.06Zm-27.08-16.42a16.92,16.92,0,0,0-1.76,1.08l-2,1.37-3.62,2.74-1.17.88c-.2.1-.29.29-.39.39l.39-.39,1.08-1.08a11.93,11.93,0,0,1,1.56-1.37l1.86-1.47a23.47,23.47,0,0,1,2.05-1.27c.68-.49,1.27-.78,1.76-1.08a4.37,4.37,0,0,0,1.37-.68c.1,0,.29-.1.39-.1s.1,0,.1-.1l-.49.29a6.1,6.1,0,0,1-1.17.78Zm-24.54,23.07a18.15,18.15,0,0,0-1.08,1.86l-.88,1.76a33.43,33.43,0,0,0-1.17,3.23,7.35,7.35,0,0,0-.39,1.47,2.6,2.6,0,0,0-.29,1.17l-.2,1V202a.73.73,0,0,0-.1.49V202a11.31,11.31,0,0,1,.1-1.66l.2-1.27a4.2,4.2,0,0,1,.39-1.37,26.07,26.07,0,0,1,1.08-3.32l.88-1.86,1-2a42.76,42.76,0,0,1,2.44-3.91c.88-1.27,1.86-2.64,2.93-3.91s2.25-2.64,3.32-3.91a67.72,67.72,0,0,1,7.33-6.84,62.58,62.58,0,0,1,7.23-5.08,15.57,15.57,0,0,1,3.13-1.56c.39-.29.88-.29,1.27-.59.49-.1.88-.29,1.27-.39l1-.2c.29,0,.39-.1.68-.1h.39c-.1,0-.1.1-.39.1a1.45,1.45,0,0,0-.68.1l-1,.29a8.16,8.16,0,0,0-1.17.39c-.39.29-.88.29-1.27.59a21.34,21.34,0,0,0-3,1.76c-1.07.68-2.25,1.47-3.42,2.35a29.78,29.78,0,0,0-3.52,2.83,79.05,79.05,0,0,0-7.23,6.84c-1.17,1.27-2.25,2.54-3.32,3.81s-2,2.64-3,3.91a41.48,41.48,0,0,0-2.44,3.81Zm12.12,15.93a8,8,0,0,1,1.27-1.17A21.58,21.58,0,0,0,368,204l1.86-1.86,1.86-2c.68-.68,1.08-1.27,1.56-1.76l1.08-1.17.49-.49-.39.49c-.29.29-.59.88-1,1.37s-.88,1.08-1.56,1.76a15.85,15.85,0,0,1-1.76,2,17.11,17.11,0,0,1-2,1.86,20.48,20.48,0,0,1-1.76,1.56,10.18,10.18,0,0,0-1.37,1l-.39.29-.1.1.1-.1.39-.29Zm7.82,2.15a22.83,22.83,0,0,1-2.25,1.86,33.39,33.39,0,0,1-2.74,2.05l-1.47,1-1.47.78a4.6,4.6,0,0,1-1.47.59,3.18,3.18,0,0,1-1.27.39,1.45,1.45,0,0,1-.68.1H361a2.66,2.66,0,0,1-.88,0l-.59-.2h0a3.46,3.46,0,0,0,.59.1H361c.29,0,.49,0,.59-.1.29,0,.49,0,.59-.1a3.19,3.19,0,0,0,1.27-.39c.49-.29,1-.39,1.47-.68s1-.49,1.37-.78l1.47-1a33.18,33.18,0,0,0,2.74-2,24.62,24.62,0,0,0,2.35-1.86l1.66-1.27L375,207l-.59.59a12,12,0,0,1-1.56,1.37Zm63.54-24.83c-5.18,9.87-16.13,26.59-26.69,26.59-.88,0-1.27-.78-1.27-2.35,0-9.38,8.8-32.36,15.64-49.17,6.65-.68,13.49-1.27,19.75-1.27,1.86,0,3.23-.2,3.23-1.86,0-3.23.2-6.35-5.18-6.35-2.35,0-7.92.1-14.17.49,3.81-9.09,5.57-12.9,5.57-13.59,0-3.81-8.11-10.26-8.11-5.77,0,1.08-2.83,7.92-7.82,20-3.91.29-13,.29-15.25.29-1.47,0-2.54,9,4.2,9a63.32,63.32,0,0,0,7.33-.2c-6.26,15.64-13.49,34.9-13.49,40.18,0,12.81,10.26,17.2,14.56,17.2,12.71,0,22.09-17,27.57-27.47,1.08-1.86-4.5-8.41-5.87-5.77ZM419.7,147.24c1.08-2.25,1.66-3.91,2.35-5.38a5.17,5.17,0,0,1,.68-1.47c.1-.2.1-.39.2-.49-.1.1-.1.29-.2.59a8.37,8.37,0,0,1-.49,1.47c-.68,1.27-1.27,3.23-2.15,5.47a27.27,27.27,0,0,0-1.17,3.42h-.68c1.08-2.35.68-1.66,1.47-3.62Zm-12.9,32.84c.88-2.25,1.76-4.89,2.83-7.72l4.59-11.63.29-.78c.39,0,.68,0,.78-.1l-.39,1.17c-2.35,6-5.87,14.76-7.72,19.26l-2.05,5.38-.59,1.56c-.1.29-.1.39-.2.49l.59-2.05c.39-1.47,1.08-3.23,1.86-5.57Zm-2.44,30.5a9.43,9.43,0,0,1-1.76-2.74c-.29-.49-.39-1.08-.68-1.56a4.2,4.2,0,0,1-.39-1.37,6.41,6.41,0,0,1-.2-1.08v-.29a.36.36,0,0,0,.1.29,5.26,5.26,0,0,0,.29,1,4.14,4.14,0,0,0,.59,1.37c.29.49.39,1,.68,1.47l.78,1.56c.29.39.39.88.68,1.17a3.67,3.67,0,0,1,.59,1l.2.29-.29-.29a2.05,2.05,0,0,1-.59-.78Zm2.54-26.88c.1-.1.1-.29.2-.59a8.83,8.83,0,0,1,.49-1.56l.78-2.05.88-2.35c.29-.88.68-1.66,1-2.44l.78-2.05,1-2-.68,2.05-.78,2.15-.88,2.35c-.39.78-.68,1.66-1,2.35l-.88,2.05a7.5,7.5,0,0,1-.59,1.47l-.29.59Zm78.69.49c-2.05,2.05-12.32,23.66-19.94,23.66-2.15,0,6.26-15.84,6.26-17s-5.47-7.72-6.55-7.72c-.29,0-.68.39-1.17,1.27-4.11,5.28-18.47,25.42-26.78,25.42-1.47,0-2.25-.88-2.25-2.64,0-13,22.48-36.07,31.77-36.07,4.5,0,3.32,5.38,6,5.38,2.35,0,.1-13.69-8.31-13.69-10.65,0-36,23.95-36,39.69,0,5.08,7.53,14.86,13.69,14.86,3.81,0,10-4.69,15.35-10.07V208c0,2.74,5.67,9.29,9.09,9.29C476,217.33,490,194,490,190.25c0-2.15-3.62-6.84-4.4-6.06Zm-27.08-16.42a17,17,0,0,0-1.76,1.08l-2,1.37-3.62,2.74-1.17.88c-.2.1-.29.29-.39.39l.39-.39,1.08-1.08a11.93,11.93,0,0,1,1.56-1.37l1.86-1.47a23.47,23.47,0,0,1,2.05-1.27c.68-.49,1.27-.78,1.76-1.08a4.37,4.37,0,0,0,1.37-.68c.1,0,.29-.1.39-.1s.1,0,.1-.1l-.49.29a6.1,6.1,0,0,1-1.17.78ZM434,190.84a18.15,18.15,0,0,0-1.08,1.86l-.88,1.76a33.5,33.5,0,0,0-1.17,3.23,7.34,7.34,0,0,0-.39,1.47,2.6,2.6,0,0,0-.29,1.17l-.2,1V202a.73.73,0,0,0-.1.49V202a11.31,11.31,0,0,1,.1-1.66l.2-1.27a4.21,4.21,0,0,1,.39-1.37,26.05,26.05,0,0,1,1.08-3.32l.88-1.86,1-2a42.73,42.73,0,0,1,2.44-3.91c.88-1.27,1.86-2.64,2.93-3.91s2.25-2.64,3.32-3.91a67.72,67.72,0,0,1,7.33-6.84,62.62,62.62,0,0,1,7.23-5.08,15.58,15.58,0,0,1,3.13-1.56c.39-.29.88-.29,1.27-.59.49-.1.88-.29,1.27-.39l1-.2c.29,0,.39-.1.68-.1h.39c-.1,0-.1.1-.39.1a1.45,1.45,0,0,0-.68.1l-1,.29a8.15,8.15,0,0,0-1.17.39c-.39.29-.88.29-1.27.59a21.33,21.33,0,0,0-3,1.76c-1.08.68-2.25,1.47-3.42,2.35a29.78,29.78,0,0,0-3.52,2.83,79.05,79.05,0,0,0-7.23,6.84c-1.17,1.27-2.25,2.54-3.32,3.81s-2,2.64-3,3.91a41.5,41.5,0,0,0-2.44,3.81Zm12.12,15.93a8,8,0,0,1,1.27-1.17A21.56,21.56,0,0,0,449,204l1.86-1.86,1.86-2c.68-.68,1.08-1.27,1.56-1.76l1.08-1.17.49-.49-.39.49c-.29.29-.59.88-1,1.37s-.88,1.08-1.56,1.76a15.86,15.86,0,0,1-1.76,2,17.09,17.09,0,0,1-2,1.86,20.48,20.48,0,0,1-1.76,1.56,10.18,10.18,0,0,0-1.37,1l-.39.29-.1.1.1-.1.39-.29Zm7.82,2.15a22.82,22.82,0,0,1-2.25,1.86,33.38,33.38,0,0,1-2.74,2.05l-1.47,1-1.47.78a4.6,4.6,0,0,1-1.47.59,3.18,3.18,0,0,1-1.27.39,1.45,1.45,0,0,1-.68.1H442a2.66,2.66,0,0,1-.88,0l-.59-.2h0a3.46,3.46,0,0,0,.59.1H442c.29,0,.49,0,.59-.1.29,0,.49,0,.59-.1a3.19,3.19,0,0,0,1.27-.39c.49-.29,1-.39,1.47-.68s1-.49,1.37-.78l1.47-1a33.2,33.2,0,0,0,2.74-2,24.63,24.63,0,0,0,2.35-1.86l1.66-1.27.59-.49-.59.59a12,12,0,0,1-1.56,1.37Z"/><path class="cls-2" d="M371.44,121.28a11.9,11.9,0,0,1,2.64,1.24c.3.16.84.42,1.18.62,1.16.7.57.15,1.21,1.07,2.19.13,7,4.44,8,3.82l-14.32-9.12c-5.48-3.28-10.24-5.82-15.64-8.42-10.64-5.11-22.56-9.69-35.62-12C305,96,289.58,100.92,277.67,103.9c-43.54,10.91-59.49-6.56-80-8.9-32.06-3.67-65.46,9.08-92.93,24.05L89.7,128,111.83,125c2.35,0,56.06-7.87,35,3.16-7.51,4.52-10.63,5.7-18.86,11.68a97.8,97.8,0,0,0-10.2,8.58c15.87-8.7,15.59-8.57,22.74-12.54,4.46-2.47,10.84-5.19,14.39-8.95,2.45-2.59,2.18-5.8-1-7.5-5.61-3-26.44-1.38-34.37-.8-.79-.15-.39,0-.83-.3,1.89-.49,4.68-2,6.81-2.87,10.61-4.33,14.65-5.6,25.39-9.16,19.58-5.89,39-9.69,61.16-.92,48.69,19.31,72-2.9,99.41-3.27,10-.14,24.71,3.72,32.72,6.87,4,1.56,25.71,10.32,27.22,12.33Z"/><path class="cls-2" d="M120.18,35.06c-5.4,6.23-3.69,11.42-3.49,22.62.2,11.47.75,22.61,1.15,34.09,1.73-6.62.49-46.55,2.51-50.78,4.3-9,24.6-16.33,34.43-19.42,26.3-8.26,61.5-14.63,92.46-15.25,34.84-.7,73.32,6.61,103,17.59,1.65.61,3.18,1.38,4.83,2,6.28,2.38,16.53,7.89,20,13.8,2.06,3.54,1.54,6.75,1.66,11.51.11,4.45.32,8.9.39,13.28.15,8.93.49,17.49.84,26.21,1.2-2.84,1.58-36.52,1.74-42.71.23-8.58-1.61-11.46-6.39-15.88-3.33-3.07-4.12-3-6.38-4.77l-7.28-4.18C354.13,19.45,334.27,12.8,327.32,11,286,.22,251.17-3.43,207.84,3.64c-20.29,3.31-35.08,6.68-53.78,12.9-2.91,1-5.59,2.11-8.1,3-7.7,2.82-20,8.76-25.78,15.49Z"/><path class="cls-2" d="M248.33,77.74l-.67-.34L247,77l-5-2.6c-26.88-12.92-61.24-6.52-86.7,5.82-4.52,2.19-8.73,4.48-12.56,6.81-1.8,1.09-3.83,2.44-5.82,3.85l-5.56,4.4-.22.28,12.35-6.75c28.95-14.71,69-23.23,99-7,9.81,5.29,2.58,5.1,15.77-3.07,9.3-5.77,24.39-12.79,35.67-13.4l-.38-.15c22.47-2.39,40.39,2.3,57.88,14L362,86.87a20.42,20.42,0,0,0,3.47,2.72C363.71,85.38,348,73.65,343,70.68c-26.36-15.78-55.76-15-81.91-.92l-9.6,5.81a21.84,21.84,0,0,1-3.16,2.18Z"/></svg>